<svg xmlns="http://www.w3.org/2000/svg" width="17.999" height="19.5" viewBox="0 0 17.999 19.5">
  <path id="Trazado_1" data-name="Trazado 1" d="M16.5,3.75A1.5,1.5,0,0,1,18,5.25v13.5a1.5,1.5,0,0,1-1.5,1.5h-6A1.5,1.5,0,0,1,9,18.75V15a.75.75,0,0,0-1.5,0v3.75a3,3,0,0,0,3,3h6a3,3,0,0,0,3-3V5.25a3,3,0,0,0-3-3h-6a3,3,0,0,0-3,3V9A.75.75,0,0,0,9,9V5.25a1.5,1.5,0,0,1,1.5-1.5ZM5.78,8.47a.75.75,0,0,0-1.06,0l-3,3a.75.75,0,0,0,0,1.06l3,3a.75.75,0,0,0,1.06-1.06L4.06,12.75H15a.75.75,0,1,0,0-1.5H4.06L5.78,9.53a.75.75,0,0,0,0-1.06Z" transform="translate(19.5 21.75) rotate(180)" fill="#fff" fill-rule="evenodd"/>
</svg>
